<svg fill="#FA5252" xmlns="http://www.w3.org/2000/svg"  viewBox="0 0 24 24" width="24px" height="24px"><path d="M 12 1 C 8.2306686 1 5.1444864 4.0171048 5.0136719 7.7558594 C 3.8022801 8.563156 3 9.9384796 3 11.5 C 3 12.640445 3.4405846 13.670866 4.1425781 14.464844 A 1.0001 1.0001 0 0 0 4.7109375 15.960938 C 4.2903175 16.541668 4 17.22548 4 18 L 4 19 L 4 20 L 5.6445312 20 C 6.0944004 21.715801 7.649665 23 9.5 23 L 11 23 L 19 23 L 19 17.580078 C 19.382575 17.428502 19.826795 17.404664 20.113281 17.113281 C 20.666455 16.569403 21 15.8114 21 15 C 21 14.1886 20.666455 13.430597 20.113281 12.886719 C 19.826795 12.595336 19.382575 12.571498 19 12.419922 L 19 8 C 19 6.07287 18.218306 4.3140975 16.947266 3.0527344 C 15.685902 1.7816939 13.92713 1 12 1 z M 12 3 C 13.390924 3 14.630929 3.5562049 15.529297 4.4628906 L 15.533203 4.4667969 L 15.537109 4.4707031 C 16.443807 5.3690632 17 6.6090763 17 8 L 17 14 L 18 14 C 18.283333 14 18.517925 14.106802 18.693359 14.287109 L 18.703125 14.296875 L 18.712891 14.306641 C 18.89313 14.482007 19 14.716667 19 15 C 19 15.283333 18.893198 15.517925 18.712891 15.693359 L 18.703125 15.703125 L 18.693359 15.712891 C 18.517993 15.89313 18.283333 16 18 16 L 17 16 L 17 21 L 14.439453 21 C 14.786352 20.40837 15 19.730688 15 19 L 15 18 C 15 16.951824 14.581621 16.000886 13.914062 15.285156 C 15.164212 14.484772 16 13.091149 16 11.5 C 16 9.019 13.981 7 11.5 7 C 10.799 7 10.114 7.1666562 9.5 7.4726562 C 8.886 7.1666562 8.201 7 7.5 7 C 7.3609831 7 7.229592 7.0286116 7.09375 7.0410156 C 7.5394095 4.7343878 9.5601755 3 12 3 z M 7.5 9 C 7.9604241 9 8.3858192 9.1349309 8.7558594 9.3535156 C 8.28936 9.9482291 8 10.687228 8 11.5 C 8 12.313313 8.2887995 13.053534 8.7558594 13.648438 C 8.3858145 13.865873 7.9622742 14 7.5 14 C 6.12 14 5 12.88 5 11.5 C 5 11.408388 5.0177236 11.32149 5.0273438 11.232422 A 1 1 0 0 0 6 12 A 1 1 0 0 0 6 10 A 1 1 0 0 0 5.3554688 10.234375 C 5.790737 9.4984691 6.5836288 9 7.5 9 z M 11.5 9 C 11.84525 9 12.173547 9.0707812 12.472656 9.1972656 C 12.622188 9.2605469 12.763477 9.3378516 12.896484 9.4277344 C 12.896484 9.4277344 12.898438 9.4277344 12.898438 9.4277344 C 13.164434 9.607418 13.392582 9.8355664 13.572266 10.101562 C 13.572266 10.101562 13.572266 10.103516 13.572266 10.103516 C 13.841207 10.502232 14 10.982737 14 11.5 C 14 12.0175 13.841914 12.499414 13.572266 12.898438 C 13.123057 13.563428 12.363125 14 11.5 14 C 11.310532 14 11.127989 13.975093 10.951172 13.935547 C 10.8859 13.920888 10.824947 13.896606 10.761719 13.876953 C 10.653265 13.843283 10.546803 13.805365 10.445312 13.757812 C 10.379415 13.726961 10.316515 13.690577 10.253906 13.654297 C 10.161832 13.600762 10.072507 13.543127 9.9882812 13.478516 C 9.9311096 13.434778 9.8753972 13.390207 9.8222656 13.341797 C 9.739624 13.266304 9.6640554 13.183695 9.5917969 13.097656 C 9.2279866 12.663462 9 12.110952 9 11.5 C 9 10.92404 9.2021906 10.399209 9.5292969 9.9765625 C 9.6239941 9.8529218 9.731277 9.740665 9.8476562 9.6367188 C 9.8802986 9.60776 9.9150831 9.5819292 9.9492188 9.5546875 C 10.050783 9.4731561 10.159555 9.399096 10.273438 9.3339844 C 10.325265 9.3045784 10.377589 9.2757248 10.431641 9.25 C 10.545452 9.1954677 10.664521 9.152206 10.787109 9.1152344 C 10.838757 9.0997873 10.888413 9.0804987 10.941406 9.0683594 C 11.121317 9.0268324 11.307746 9 11.5 9 z M 11 10 A 1 1 0 0 0 11 12 A 1 1 0 0 0 11 10 z M 8.5 16 L 9 16 L 11 16 C 12.116666 16 13 16.883334 13 18 L 13 19 C 13 20.116666 12.116666 21 11 21 L 9.5 21 C 8.7514357 21 8.1145314 20.598093 7.7714844 20 L 11 20 L 11 19 L 6 19 L 6 18 C 6 17.54225 6.2670227 17.054818 6.7597656 16.654297 C 7.2525086 16.253776 7.941667 16 8.5 16 z"/></svg>